<svg xmlns="http://www.w3.org/2000/svg" viewBox="0 0 847.961 1259.365" xml:space="preserve" stroke="#000" fill="none" stroke-linecap="round" stroke-linejoin="round"><path d="M687.1 678c-22.3-36.1-44.5-72.2-66.7-108.4-18.4-29.7-37.1-60-63.2-83.3-26.1-23.3-61.1-39-95.8-34 12.1-11.5-6.6-31.1-23.3-31.1-16.6 0-34.3 7.9-49.3.7 26.4-14 59.2-15.3 86.6-3.6 20.7-40.1 41.3-80.2 61.9-120.4-22-14.4-46.7-24.8-72.5-30.4 26-14.3 63.2-.7 73.9 26.9 34.4-68.1 68.8-136.3 103.2-204.5 7.3-14.4 14.2-33 4-45.5-7.8-9.4-22.5-10.3-33.6-5.2-11.1 5.1-19.3 14.7-27 24.2-53.6 65.9-99.9 137.7-137.9 213.6 23 17.3 50.5 28.7 79.1 32.6-30.2 11.8-67.9-.5-85.3-27.8-30 76.7-71.3 149.1-122 214-18.5 23.6-38.7 47.3-46.4 76.2 12.9-2.3 26.9 3.4 34.6 14-12.5-3.2-26.4-6.3-37.7-.1-11.3 6.2-14.1 26.1-2 30.7 26.3 9.9 45.1 37.1 45.1 65.2-10.8-13.9-21.7-27.7-32.5-41.5-4.7-6-11.4-12.7-18.7-10.7-11.1 3-17.8 23.9-26.8 16.7 4.5-12 9.1-24.6 7.7-37.3-1.3-12.8-10.7-25.6-23.4-26.5-5.7-.4-11.5 1.6-17.1.3-5.5-1.2-10.2-8.5-6.1-12.5 31.9 16.7 77.2-6.3 82.5-42 3.9-25.9-44.3-35.5-42.4-61.6 23.8 2 47 10.4 66.5 24.2 28.4-29.9 51.8-64.6 68.7-102.2 4.9-10.8 9.3-22.5 7.2-34.1-2.2-11.6-13.4-22.3-24.9-19.6-3.7.9-6.9 3-10.1 5.1-93.2 61.3-173.3 142.3-233.8 236-11.8 18.5-23.1 37.8-28.3 59.1-6.7 27.1-3.1 55.7.5 83.4 5.6 42.9 11.2 85.7 16.8 128.6 1.7 13 9.8 24.2 17.6 34.7 36.3 48.9 72.6 97.7 108.9 146.6 4.5 6.1 9.2 12.3 15.4 16.7 8.5 6 19.1 8 29.2 10.6 69 17.7 125.1 66.3 178.4 113.5-28 1.8-53.2-16.7-72.9-36.7-19.7-20-37.6-43.1-63.1-55-30.8-14.4-67.6-9.9-99.1-22.7-23.3-9.4-45.3-28.5-70-23.7-18.8 3.6-32 20.1-43.4 35.5L0 1200.8c30.9-62.1 61.8-124.2 92.7-186.4 11.2-22.5 22.7-47.8 15.8-72-26.1-89.9-40.2-183.3-42.2-276.9-.4-21.8.1-44.7 10.9-63.6 60.7-106.8 146.6-199 248.8-267 8.2-5.5 16.9-10.9 26.7-12.2 19.3-2.3 38.4 15.5 37.3 34.9 51.2-98.2 102.8-196.8 169.3-285.3 14.2-18.8 30.5-38.2 53-44.9 22.6-6.8 52.3 5.6 54.6 29.1C672.8 21.9 716.5 0 747.7 16c31.2 16 39 64.3 14.3 89.3 20.6-16.8 54.5-1 64.2 23.8 9.6 24.8 1.7 52.8-9.1 77.1-10.9 24.2-24.9 47.8-28.1 74.2 21-10.2 46.8 8.4 52.9 30.9 6.1 22.4-1.4 46.1-8.8 68.3C794.6 495 756 610.4 717.5 725.8c-17.6 52.8-35.3 105.7-60.9 155.1-43.6 84.3-108.6 155.4-159.2 235.8-28.3 45-52 92.9-70.7 142.7 6.7-66.3 39.3-127.2 77.6-181.6 38.3-54.5 83-104.4 118.7-160.5 33.8-53 59.3-111.2 75.5-172 2.7-10.4 5.3-21.2 3.9-31.9-1.6-12.9-8.5-24.4-15.3-35.4M586.5 474.6c.3 3.5 2.3 6.5 4.2 9.4 15.6 23.3 31.2 46.6 46.7 69.9 54.1-71.2 80.8-158.9 118.2-240.2 23.9-52.2 52.8-102.9 65.6-158.9 3.3-14.8-4.3-31.4-17.8-38.5-13.4-7.1-31.4-4-41.7 7.1-4.9 5.3-8.1 12-11.1 18.5l-47.7 102.6c-.4.8-.8 1.6-.6 2.5.2 1.4 1.7 2.2 3 2.8 18.1 8.1 36.2 16.2 54.4 24.3 3.8 1.7 2.3 8.2-1.5 9.9-3.9 1.6-8.3 0-12.3-1.5-15.9-6.4-31.6-13.1-47.3-20-2.5-1.1-4.8 1.7-6.1 4.1-20.1 37.7-40.1 75.4-60.1 113.1 4.1-1.7 8.7 2.8 8.9 7.2.3 4.5-2.3 8.6-4.7 12.3 22.3 7.9 42 22.9 55.4 42.4-3.7 3.5-9.8.4-13.9-2.8-18.2-14.1-36.4-28.2-54.5-42.3-11.3 22.2-22.6 44.4-33.8 66.6-1.9 3.6-3.7 7.5-3.3 11.5m-8.2-41.5c16.4-19.2 29.6-41.1 39-64.6 6-15.1 10.4-30.8 16.3-45.9 12.6-32.3 31.6-61.5 49.2-91.3 29-49.2 54.7-100.3 76.8-152.9 4.5-10.8 8.9-23 4.8-34-5.5-14.4-22.7-19.8-37.9-22.4-8.5-1.5-17.9-2.6-25.3 1.9-5.1 3.2-8.4 8.6-11.5 13.8-19.9 34-36.9 69.8-50.5 106.7-.5 1.3-.8 3.1.4 3.7 18.3 9 36.5 18.1 54.8 27.2 2.8 1.4 6.2 3.7 5.5 6.8-.7 3.7-5.8 4-9.5 3.2-19.8-4.1-38.8-12.5-55.2-24.4-2.7-2-6 1.6-7.5 4.7-14.8 31.4-29.7 62.9-44.6 94.3 16.2 11.5 35.1 19.2 54.7 22.3 3.8.6 3.6 6.9.2 8.8-3.3 1.8-7.5.7-11.1-.5l-35.7-11.7c-5.5-1.8-12.1-4.9-12.4-10.7-20.7 43.8-41.5 87.6-62.2 131.4-1.3 2.7-2.6 5.7-1.9 8.6.8 3.6 4.4 5.8 7.7 7.5 14.4 7.7 29.4 14.5 44.7 20.4 1.9.8 4 1.6 6.1 1.1 2.1-.5 3.7-2.3 5.1-4m108.6 97.5c-1.8-2.5-5.7-2.4-8.2-.6-2.5 1.7-3.9 4.5-5.3 7.3-5.6 11.3-11.1 22.6-16.7 34-1.9 3.7-3.7 7.6-4.1 11.8-.5 5.7 1.8 11.2 4.3 16.4 14.7 31.8 33.5 61.7 55.7 88.8 43.8-113.4 87.8-227 118.8-344.5 2.3-8.8 4.6-18 3.1-26.9-2.4-14.1-15.2-25.8-29.4-27-14.3-1.2-28.8 8.2-33.5 21.8-24.2 69.5-52.7 137.5-85.5 203.4 15.7 14.8 34 27 53.7 35.9 6.4 3 14.2 7.4 13.5 14.4-25.8-.9-50.9-14.1-66.4-34.8m-127.6-80.2c-1.9-2.2-4.7-3.4-7.3-4.4-9.1-3.7-18.3-7.3-27.4-10.9-2.2-.9-4.5-1.8-6.9-1.5-2.4.3-4.7 2.3-4.5 4.7.2 2.2 2.4 3.7 4.4 4.8 17.3 10 33.5 21.9 48.1 35.5-1.1-6.5-2.1-12.9-3.2-19.3-.5-3.2-1.1-6.5-3.2-8.9" fill="#000" stroke="none"/><path d="M496.2 568.1c-6.2-9-9.2-20.1-8.4-31 .2-3.3.9-6.9 3.1-9.4 1-1.1 2.6-2 4-1.5 1.5.5 2.1 2.3 2.4 3.9 3.4 14 6.2 28.3 8.4 42.6-3.4 1.8-7.3-1.4-9.5-4.6M461 443.8c-17-2.8-33.9-5.7-50.8-8.8-2.9-.6-6.6-2.3-5.8-5.1.6-2.1 3.3-2.7 5.4-2.7 15.2-.5 30.5 2.3 44.5 8.1 3.7 1.5 8 4.7 6.7 8.5M633.2 318.9c-6.2 1.2-12.6-.5-18.7-2.3-10.9-3.3-21.6-7-32.2-11.2-3-1.1-6.2-2.5-7.6-5.3-1.5-2.8.2-7.3 3.4-7.1 17.9 1.2 35.6 7.4 50.2 17.9 2.7 1.9 5.6 4.7 4.9 8M692.3 421.5c-6.1 3.3-13.2-1.7-18.4-6.3-6.8-6.1-13.6-12.3-20.4-18.4-5.8-5.2-12-11.2-12.6-19 5.1-2.6 11 1.6 15.2 5.6 6.3 5.9 12.6 11.8 19 17.8 6.5 6.1 13.1 12.3 17.2 20.3M739.4 420.9c7.2-.1 14.1 3.2 20.7 6.4 9.5 4.6 19.1 9.3 28.7 13.9 4.7 2.3 10 5.4 10.4 10.6-4.8 3.8-11.7 2.1-17.5.3-16.5-5.3-33.3-10.8-47.4-20.8-1.3-.9-2.6-2-3.1-3.4-1.3-4 4-7 8.2-7M522 152.8c2.4-2.6 6.6-2 10-1.1 19.5 4.9 38 13.9 54 26.3 1.6 1.2 3.2 2.5 3.8 4.4.6 1.9-.2 4.4-2.1 4.8-6.3 1.4-12.7-1.6-18.5-4.5-9.9-5-19.7-10-29.6-15-7-3.6-14.5-7.7-17.6-14.9M762.3 553c-6.5 2.1-12.8-3.5-17.8-8.2-12.8-11.7-28.9-19.7-45.9-22.8-2.8-.5-3.1-4.9-1-6.8 2.1-2 5.2-2.2 8.1-2.1 8.4.1 17 .9 24.6 4.5 8 3.7 14.4 10.1 20.6 16.5 5.3 5.3 10.9 11.4 11.4 18.9M414.3 836.7c-4.1-13.6-3-28.2-3-42.4.2-60.4-19.5-118.9-30.6-178.3-.8-4.1.8-10.4 4.8-9 1.6.5 2.4 2.4 3 4 25.2 67.5 36.4 140.2 32.6 212.1-.3 5.4-1.6 12.1-6.8 13.6M476.7 576.8c22.6 35.4 40.2 74 65.7 107.4 11 14.3 23.4 27.6 35.8 40.8 21.8 23.4 43.6 46.8 65.3 70.3 3 3.3 6.2 8.1 3.8 11.8-77.1-53.6-139.4-128.3-178.2-213.8-3.4-7.7-6.7-16.9-2.3-24.1 4.4-.2 7.5 3.9 9.9 7.6" fill="#000" stroke="none"/><path d="M429.2 608.4c33 48.5 64.4 98.2 94.1 148.8 8.2 14 16.4 28.7 17.7 44.8-1.7-.2-3.4-.4-5.2-.7-33.3-41.5-55.9-90.3-84-135.6-28.1-45.2-63.8-88.5-112.8-109.3-4.6-1.9-4.2-9.5 0-12.2 4.1-2.8 9.8-1.7 14.1.9 4.3 2.6 7.6 6.5 11.5 9.6 8.5 6.7 19.3 9.6 28.6 15.1 15.4 8.9 26 23.9 36 38.6" fill="#000" stroke="none"/></svg>