<svg xmlns="http://www.w3.org/2000/svg" viewBox="0 0 998.946 1053.75" xml:space="preserve" stroke="#000" fill="none" stroke-linecap="round" stroke-linejoin="round"><path d="M561.4 182.6c-6.7-13.4-5.5-30.4 3.1-42.7 6 19.7 13.1 40.9 30.3 52.4 9.6 6.5 21.4 9 32.9 10.6 57.1 7.8 116.9-5.1 165.6-35.8 25.8-16.3 50.8-44 43.2-73.5-6.4-25.1-34.4-39-60.2-40.5-25.9-1.5-51.4 5.9-77.2 7.5-42.9 2.8-86.7-11.1-120.2-38-4 4.3-8.1 8.7-12.1 13.1-2.8-5.6-5.7-11.2-8.6-16.9-11.9-.2-23.8 3.2-33.8 9.6C536.7 45 544.5 65 546.7 85.6c-19.3-10.1-33.8-29.1-38.4-50.4-70.2 51.3-142.7 99.4-217.2 144.1-54.4 32.6-69.8 102.9-81.2 165.3-15.6 86.1-33.2 172.4-65 253.9C113.2 680.1 66.4 757.3 0 814.3l39.6-55.2C63.3 726 87 692.8 106 656.9c64.6-122.4 69.4-266.8 110.5-398.9 6.3-20.5 13.9-41.1 27.7-57.5 11.1-13.3 25.8-23 40.2-32.5 73.3-48.3 146.5-96.6 219.8-144.9 10.3-6.9 20.9-13.8 33-16.6C565.8 0 593.5 18 620.4 29.8c40 17.5 85.6 22 128.2 12.5 33.2-7.4 70.2 7.5 88.8 35.9 18.7 28.4 17.9 68.3-2 95.9 36.4-7.6 76.7 9.6 96.4 41.2 19.8 31.6 17.7 75.3-5 104.8 35.9 1.4 64.1 37.1 65.7 73 1.7 36-17.9 70.1-43.7 95.2 32.2 7.9 50.1 45.8 44.7 78.4-5.4 32.7-28.6 59.7-54.7 80.1-26 20.4-55.7 36-81.5 56.7-34.1 27.4-60.6 63.1-88.8 96.6-87.5 104-195.5 190.7-315.9 253.7 43.1-52.8 107.6-82.5 162.1-123.3 34.4-25.7 64.9-55.9 95.4-86.1 13.8-13.7 28-27.8 36-45.6 7.9-17.7 8.5-40.2-3.8-55.3-13.8-17-38-19.6-59-25.8-20.9-6.2-43.6-23.6-38.8-45 4.2-18.3-20-27.9-36.7-36.5-41.5-21.6-52.4-85.4-20.3-119.5-14.5-10.3-29.1-20.7-43.6-31.1-11.6 55.2-17.1 111.6-16.5 168 .4 29.1.8 62.2-20.5 82 8.9-114.5 17.9-229.1 26.9-343.7-7 42.3-14 84.6-20.9 126.9-16.1-27.4-2-61.7.3-93.4 4.8-64.5-40.9-121.6-89.9-164 31.7 18.6 71.4-.7 102.8-19.7 21.7-13.1 46.8-36.4 35.3-59.1m51 193.5c6.4 4.3 11.1 10.7 15.3 17.2 8.4 13.2 15.4 27.5 20.5 42.4 2.3 6.6 4.3 13.7 3.1 20.7-1.1 7-6.2 13.8-13.2 14.7 88.9-11.5 167.6-62 239.1-116.1 9.9-7.4 19.8-15.1 27.6-24.7 14.6-18 20.7-41.2 26.4-63.7 1.7-6.3 3.3-12.9 2.3-19.3-1.1-6.4-4.6-12-8.1-17.4-5.2-8-10.7-15.8-16.4-23.4-3.8-5.1-7.9-10.2-13.4-13.5-7.1-4.2-15.7-4.8-24-5.3-14.6-.9-29.9-1.6-42.9 5.1-7.3 3.8-13.3 9.7-19.2 15.4-20.6 20.4-41.3 40.7-61.9 61.1-9.7 9.5-19.5 19.2-31 26.6-11.3 7.3-23.9 12.2-36.3 17.4-42 17.5-82.5 38.3-121.2 62.3 17.6-5.4 38-9.7 53.3.5m53.9 130.1c7.9 5.6 12.2 14.9 15.9 23.9 3.7 9.1 7.3 18.3 10.6 27.5 2.2 6 4.3 12.5 3 18.7-1.5 6.8-6.7 12.1-12 16.6-13 11-28.2 19.5-44.4 24.9 5.4 3.5 12.6 1.1 18.6-1.4 86.5-36.5 171.2-77.2 253.8-121.8 10.8-5.8 21.8-11.9 30.4-20.6 8.3-8.4 14.1-19 19.7-29.4 5.3-9.7 10.5-19.4 15.6-29.2 2.8-5.2 5.6-10.8 5.3-16.8-.2-6-3.6-11.4-6.5-16.6-6.9-12.7-11.7-27-21.9-37.3-10.1-10.2-28.5-14.6-38.7-4.3-60 61-134.5 107.8-215.5 135.4-30.4 10.3-62.3 18.2-88.9 36.2 8.7-4.3 17.6-8.7 27.1-10.5 9.5-1.9 20-.9 27.9 4.7m90.4 149c-1 7.7-6.2 14.1-11.3 19.8-12.3 13.9-29.6 27.9-47.4 22.8 10.6 9.6 27.1 6.7 40.9 2.9 64.7-17.3 128.4-38.5 190.6-63.2 10.1-4.1 17-13.5 23-22.6 9.9-15.1 19.2-30.8 27.7-46.8 6.6-12.4.8-27.6-5.3-40.3-5.5-11.7-12.8-24.7-25.5-26.9-8.6-1.5-17.2 2.5-25 6.4-62 31.2-124 62.3-186 93.4 5 11.5 9.8 23.1 14.3 34.7 2.5 6.4 4.9 13.1 4 19.8m-12.2-408c26.2-23.6 52.8-47.5 72.8-76.5-24.6 32-65.2 46.6-103.8 58.6-42.4 13.2-85.2 25.1-128.4 35.1 14.7 11.3 27.1 25.4 36.4 41.5 3.1 5.4 11.3 4.1 17.3 2C661.6 300 684.6 292 705 279c14.3-9.1 26.9-20.4 39.5-31.8m-84.7 281.9c-3.6-5.4-8.3-11.1-14.8-11.4-4-.2-7.6 1.7-11.1 3.6-12.1 6.6-24.1 13.2-36.2 19.7-6.4 3.5-8.8 11.7-8.9 19-.5 19.7 11.6 39.1 29.5 47.4 1 .5 2.2.9 3 .1 8.4-8 20.2-11 31-15.4s21.8-11.9 23.8-23.4c1.5-8.7-2.7-17.3-7.1-24.9-2.9-5-6-9.9-9.2-14.7m-162-206.2c6 9.3 11.9 18.5 17.8 27.7 2 3.2 4.2 6.5 7.5 8.3 5.6 3.1 12.6.9 18.5-1.6 18.8-7.9 36.4-18.4 52.2-31.2 1.2-1 2.5-2 3.2-3.4 1.6-3 .4-6.6-.9-9.7-4.2-9.8-10.3-19-18.8-25.2-8.6-6.2-20-9.1-30.1-5.9-5.5 1.8-10.3 5.2-14.9 8.6-11.3 8.2-22.3 16.6-33.2 25.3-1.2.9-2.4 1.9-2.6 3.3-.2 1.4.6 2.7 1.3 3.8m53.2 84.3c-1.4 7.4-2.9 14.7-4.4 22-.4 2.2-.9 4.5-.6 6.7.6 3.9 3.4 7.1 6.1 10.1 5.9 6.3 11.7 12.6 17.5 18.9 3.6 3.9 8.3 8.1 13.4 6.7 14.3-4.1 28.6-8.1 42.8-12.1 1.3-.4 2.6-.8 3.2-1.9.4-.9.3-1.9.1-2.9-4.1-23.6-13.2-48.4-33.4-61.4-2.5-1.6-5.2-3-8.1-3.2-2.1-.2-4.3.4-6.4.9-5.9 1.5-11.7 2.9-17.6 4.4-3.9 1-8.1 2.2-10.4 5.5-1.3 1.8-1.7 4.1-2.2 6.3M736.3 636c-2.1-6.1-5.2-12.6-11.1-15.3-6.4-2.9-13.9-.2-20.4 2.7-8.3 3.6-16.4 7.6-24.4 11.8-6.3 3.4-12.9 7.4-15.6 14.1-3.6 9 1.4 19.1 7.5 26.7 5.4 6.7 11.7 12.7 18.7 17.7.9-5 5.9-7.9 10.4-10.3 8-4.3 15.9-8.8 23.6-13.7 4.6-2.9 9.5-6.2 12-11.1 3.6-6.9 1.8-15.3-.7-22.6m16.3 90.2c5.2 18.8 11.5 37.4 18.7 55.6 17.6-30.6 39.5-58.8 64.8-83.5.9-.9.2-2.5-.9-3-1.1-.4-2.4-.1-3.6.2-24.3 6.5-48.6 12.9-72.9 19.4-2.2.6-4.7 1.3-6 3.3-1.5 2.3-.9 5.3-.1 8" fill="#000" stroke="none"/><path d="M780.7 498.9c1.3-1.9 4.4-1.7 6.1-.2 1.7 1.6 2.5 3.9 3.2 6.1 1.3 4.4 2.5 9.7-.6 13.1-4.8-2.6-6.9-8.3-8.6-13.5-.6-1.8-1.2-3.9-.1-5.5M557.6 42.9c1.8 6.5 3.6 13.1 5.5 19.6.1.6.3 1.3.2 1.9-.2.8-.8 1.5-1.5 1.9-3.4 2.1-8.2-.3-10-3.9-1.9-3.6-1.8-7.8-2-11.9-.1-2.7-.3-5.6 1.3-7.8s5.8-2.4 6.5.2M847.1 594.3c2.8-2 6 1.6 7.5 4.6 2.1 4.3 4.2 8.6 4.9 13.4.6 4.7-.6 10-4.2 13.1-5.4-7.6-8.8-16.6-9.6-25.9-.2-1.9-.1-4.1 1.4-5.2M710.3 81.4c4.7 7.5 8.3 15.7 10.6 24.3 2.7 10.1 3.6 20.6 4.4 31 .2 2.9.4 5.9-.8 8.5-1.3 2.5-4.7 4.3-7.2 2.9-2.6-1.5-2.6-5.2-2.5-8.3.8-18.6-5.5-37.5-17.2-52-4.9-6-11.1-12.3-10.6-20 4.6-1.3 9.7.1 13.7 2.8 4 2.8 7 6.7 9.6 10.8M748.7 391.5c2.6 5.9 5.3 12.5 3.3 18.7-17.3-17-27.2-40.3-44-57.9-4.5-4.7-9.8-10.1-8.8-16.5 6.5-.6 11.9 4.4 16.4 8.9 8.8 8.9 17.7 17.9 24.2 28.6 3.5 5.8 6.2 12 8.9 18.2M228 699.4c-9.6-3.7-19.1-8.5-26.4-15.7-6.4-6.3-10.9-14.1-15.4-21.9-12.9-22.6-26.1-46.2-27.8-72.2-.2-3.3-.2-6.9 2.1-9.4 2.2-2.4 7.2-2.2 7.9 1 4.7 19.4 9.4 38.9 17.8 56.9 8.5 18 21.1 34.6 38.4 44.4 24.3 13.8 55.5 13.1 78 29.8-25.4.8-51-3.6-74.6-12.9" fill="#000" stroke="none"/><path d="M180.9 721.1c-7.2-6.2-14.3-12.7-19-21-4-7.3-5.9-15.6-7.6-23.8-2.9-15.1-5.1-30.3-6.5-45.6-.4-5.2 0-11.9 4.9-13.8 5.2 22.4 5.5 46.2 15.2 67 10.6 22.8 31.3 39.2 52.3 53 21 13.9 43.4 26.3 60.5 44.8-7.7 3.4-16.4-.9-23.6-5.3-26.9-16.3-52.4-34.8-76.2-55.3" fill="#000" stroke="none"/></svg>