<svg xmlns="http://www.w3.org/2000/svg" viewBox="0 0 818.937 1279.828" xml:space="preserve" stroke="#000" fill="none" stroke-linecap="round" stroke-linejoin="round"><path d="M225.2 841.9c13.2.1 26.4.3 39.6.4-7 7.9-18.6 9.2-28.7 12.4-10.1 3.3-20.7 11.9-18.5 22.2 4.9 22.6 16.9 50.9 39.9 49-12.4 14.4-6.9 40.2 10.3 48.3 18.5-3.8 36.9-7.7 55.4-11.5-20.5 20.8-49.6 32.8-78.8 32.5 49 1.8 98.4-18.3 132.3-53.8 2.5 19.5-16.6 34.5-34.3 43.1-40.9 19.6-87 28.4-132.3 25.1 75.3 26.1 167.6-16.9 196-91.3 2.3 37.8-23.9 72.7-56.5 91.9-32.6 19.2-70.9 25.8-108.3 32 19.9 12.6 44.5 17.7 67.7 14-18.4 9.5-39.7 13.5-60.3 11.4 22 9.6 47.3 11.7 70.6 5.9.9 7.6 1.9 15.3 2.8 22.9-68.5-13.8-135.8-33.6-200.9-59-19.5-7.6-37.1 14-47 32.6-24.7 46.4-49.5 92.8-74.2 139.2 39.4-119.4 78.8-238.8 118.2-358.1 21-63.8 42.1-127.7 72.3-187.6 98.4-195.3 147.1-412.2 242.9-608.8 12.4-25.5 33.3-54.7 61.2-50 19.1 3.2 32.1 22.4 34.5 41.5 2.5 19.1-3.3 38.3-8.9 56.7-34.6 112.5-69.2 224.9-103.8 337.4 9.1 10.9 26.7 10.8 39 3.8 12.3-7.1 20.6-19.3 28.6-31 66.9-97.9 140.6-191.2 220.5-278.8 13.3-14.5 27.3-29.4 45.4-37.3 18.2-7.9 41.5-7.1 55.3 7.1 12 12.5 13.7 32.3 8.7 48.9-4.9 16.6-15.6 30.8-26 44.7C693 323.8 598 449.9 503.1 575.9c23 15.6 48.4 27.8 74.9 36 6.6 2 13.5 3.8 20.3 3 8-.9 15.2-5.5 21-11.1 18.9-18.3 23.4-49.7 10.3-72.5-13.1-22.9-42.5-34.9-67.9-27.8 22.6-23.8 67.4-8.3 80.4 21.8 13.1 30.2 2.3 65.7-15.2 93.5 22.9 4 38.5 27.3 41.3 50.5 2.8 23.1-4.3 46.2-11.4 68.4-25.3 80-51 160.6-93.1 233.1-59.6 102.6-152.9 191.7-170.7 309-4.2-28.5 1.7-58.4 16.5-83.2 11.3-18.9-9.5-40.8-28.7-51.6-19.2-10.8-42.7-26.4-38.5-48 20.6 15.2 41.2 30.3 61.8 45.5 3.9 2.9 8.4 5.9 13.2 5.1 4.3-.7 7.5-4.3 10.2-7.7 94.3-116.6 178.4-246.6 209.3-393.3-43.5 34.9-86.9 69.7-130.4 104.5-16.9 13.6-36.8 27.9-58.1 24.3-31.1-5.3-43.3-47.5-29.9-76 13.3-28.6 42.2-46 69.6-61.7-38-19.8-84.6-.9-120.1 23.3-35.4 24.1-69.9 54.5-112.5 59.2-14.4 1.6-35.4 8.2-30.2 21.7m247-67.2c14.9-1.3 28.5 12.1 30.6 26.9 2.2 14.9-5 29.8-15.5 40.5-4.6 4.7-10.1 9.5-10.3 16 46.9-42 94.1-84.2 147.4-117.7 11.1-6.9 23.2-14.4 28.1-26.5 2.3-5.8 2.6-12.2 3-18.4.8-14.5 1.4-29.6-4.3-42.9-5.7-13.4-19.6-24.3-33.9-21.7 15.9 17 20.8 44.2 9.7 64.7-11.8 21.9-37.6 32.2-62 37.1-24.4 5-50.1 6.4-72.2 17.9-11.5 6-21.4 14.4-31.3 22.7-13 11-26.1 22.1-35.8 36.1 5.9-5.8 11.9-11.6 17.8-17.4 8.2-7.9 17.3-16.4 28.7-17.3m-43.3-99.9c-4.6-.5-7.9-4.4-10.6-8.1-20.8-29.5-24.5-70.3-9.4-103-44.4 12.3-87.3 30.4-127.1 53.8-1.8-8.6 4.7-16.8 12.2-21.4 7.5-4.6 16.2-7.1 23.2-12.5 2.5-2 5-4.9 4.3-8.1-.4-2.1-2.1-3.6-3.7-5.1-13.9-12.4-27.9-24.8-41.8-37.2 24.2 2.4 46.3 20 54 43.1 24.3-7.8 48.5-15.7 72.8-23.5 12.6-4.1 25.5-8.3 38.8-8.4 13.3-.1 27.3 4.5 35.4 14.9 4.1 5.3 12.4.4 16.9-4.6 81.9-89.9 155.9-187 220.7-290 1.3-2.1 2.7-4.5 2.3-6.9-.3-2.4-2.2-4.2-4-5.8-17.3-15.3-34.9-30.3-52.7-44.9-29.4 35.1-58.7 70.3-88 105.4-6.2 7.4-12.7 16.9-9 25.7-11.9 3-19.8 13.9-26.8 24-21.6 31.5-43.3 63-64.9 94.5 21.8 12.4 39.8 31.6 50.8 54.1-8.5 2.8-17.7-2.2-23.7-8.8-6.1-6.5-10.3-14.6-16.6-20.9-9.3-9.2-22.3-13.7-35-17.2-41.1-11.7-84.1-17.1-126.8-16.1-11.4.3-25.3 2.9-28.7 13.7-20.4 65-47.6 127.8-81 187.2-18.5 32.8-8.2 73.6 2.4 109.7 3.9 13.2 12.5 29.5 26.1 26.9 13.3-2.6 26.6 3.1 39.9 5.9 13.3 2.9 29.8 1.4 36.6-10.3-22.3-.4-44.5-.7-66.7-1.1-4.4 0-9.1-.2-12.8-2.7-3.7-2.4-5.5-8.2-2.4-11.4 25.2.9 50.3 1.7 75.5 2.6 15 .5 33.9-1.6 38.5-15.8-11.7 2.8-24.7-.7-33.5-9 13.5 2.6 28.4-4.3 35-16.4 13.3-24.3 42.3-35.4 69.8-39.4 40.6-6.1 82.9-.6 120.7 15.6 9.4 4 18.8 8.7 28.9 10.2 10.2 1.6 21.7-.8 28.1-8.9-35.5.5-67.3-34.4-63.5-69.7 2.8-25.1-21.8-43.6-43.4-56.6l-38.4-23.1c-5.7 23.8-4.7 49.1 2.9 72.4-5.7 2-12.2-2-15-7.4-2.8-5.3-2.9-11.7-2.9-17.8 0-15.3 0-30.6-.1-45.9-18 11.3-28.4 33.6-25.5 54.6 3 22 19 41.5 18.2 63.7m-72.1-375.2c-4.1-3.3-9.1 2.7-10.8 7.7-14.8 43.7-29.7 87.4-44.6 131.2 29.4 3.2 58.9 4.8 88.4 4.7 3.8 0 7.9-.2 10.5-2.9 2.7-2.6 1.6-8.5-2.2-8.5-18.3 0-36.5.1-54.8.1-3.4 0-7.2-.2-9.6-2.6-2.4-2.4-1.3-7.8 2.1-7.6 19.7.9 39.4.1 58.9-2.6 5.2-.7 10.5-1.6 14.7-4.7 4.5-3.5 6.9-9 8.9-14.3 10.3-26.5 17.9-54 22.8-82-28.9 7.5-61.2.4-84.3-18.5m450.8-167c-.5-3.2-2.6-5.9-4.7-8.4-10.5-12.9-25.6-25.2-41.9-22.1-11.9 2.2-20.7 11.8-28.6 20.9-20.5 23.5-41.1 47-61.6 70.5-.8.9-1.7 2-1.7 3.3 0 1.3.9 2.4 1.8 3.4 13.2 14.5 27.3 28.2 42.3 40.9 3.9 3.3 8.6 6.7 13.6 5.4 3.1-.8 5.5-3.5 7.6-6 25.2-30.1 48.3-61.9 69-95.2 2.4-3.9 4.8-8.2 4.2-12.7M472.4 21.2c-6.2 4.2-10.2 10.7-14 17.2-21.1 36-38.5 74.2-52 113.7 24.3 5.4 48.7 10.9 73 16.3 1 .2 2.1.4 3-.2.6-.4.9-1.1 1.2-1.7 13.3-31.2 24.6-63.3 33.7-96 2.1-7.5 4.1-15.2 3.5-23-1.1-12.2-9.3-23.4-20.5-28.2-8.9-3.9-19.8-3.5-27.9 1.9m-112.5 248c30.6-3 62 2.8 89.5 16.6 8.9-30.9 17.8-61.7 26.7-92.6.7-2.7 1.5-5.7.3-8.2-1-2.3-3.4-3.7-5.7-4.8-18.8-9.3-40.2-11-61.1-12.6-2.6-.2-5.4-.3-7.5 1.2-1.4 1.1-2.3 2.7-3.1 4.4-14.8 31.2-27.9 63.3-39.1 96m87.6 590.4c2 1.2 4 2.5 6.4 2.6 4.9.3 8.5-4.4 11.2-8.6 7.7-12.4 15.5-24.8 23.3-37.2 1.4-2.3 2.9-4.6 3.5-7.2 1.3-5.6-1.5-11.3-5.1-15.8-3.9-4.7-9.6-8.7-15.6-7.7-4.7.8-8.3 4.3-11.6 7.7-9.6 10-19.2 20-28.8 30.1-5.3 5.5-4.7 14.8-.6 21.2 4.2 6.5 10.8 10.8 17.3 14.9M574.4 622c3.6 9.9 6.3 20.4 5.3 30.9s-6.1 21-15.2 26.4c7.3 3.8 14.8 7.4 22.4 10.6 8.5 3.6 18.4 6.7 26.4 2.3 7.3-4 10.5-12.9 10.7-21.2.4-17.1-10-33.8-25.4-41.1-7.7-3.6-16.2-4.9-24.2-7.9M364.1 290.1c7.1 5.3 14.3 10.6 22.5 13.8 8.5 3.3 17.7 4.1 26.8 4.9 4 .3 7.9.7 11.9 1 3.9.3 7.9.7 11.7-.2 3.9-.9 7.5-3.3 9-7 1.4-3.6-.1-8.5-3.8-9.8-27.6-9.9-57-14.8-86.3-14.4-.1 4.9 4.2 8.7 8.2 11.7M546 615.3c.8 15.7 2.8 31.4 5.8 46.8.8 4.2 2.1 8.8 5.8 10.8 9.3-7.6 14-20.5 11.6-32.3-2.4-11.8-11.7-21.9-23.2-25.3M234.5 810.2c11.2-1.6 22.5-3.2 33.7-4.8-9.8-2.3-19.7-3.8-29.7-5.4-3.1-.5-6.5-1-9.5.3-2.9 1.3-4.9 5.2-3.1 7.9 1.7 2.6 5.5 2.4 8.6 2m-50.8 209c6.8 4.4 15 6.7 23.2 6.5 1.1 0 2.2-.1 3.3-.2-8.8-2.1-17.7-4.2-26.5-6.3" fill="#000" stroke="none"/><path d="M474.3 627c-2.8-2.4-2.6-6.8-2.2-10.5l1.8-14.7c.4-3.5 2.2-8 5.6-7.2 2.4.6 3.2 3.6 3.4 6.1.3 5.1 0 10.3-1 15.4-.9 4.6-3 9.8-7.6 10.9M294.8 940.4c4.4-2.1 10.1-4.1 13.6-.7-4.8 11.2-17.9 18.2-29.9 15.8-1.8-.9-2-3.6-1-5.3 1.1-1.7 3-2.7 4.8-3.6 4.2-2.1 8.4-4.1 12.5-6.2M464.3 607.7c5.6 5.5 4.9 14.6 3.8 22.4-1 7.1-2.1 14.2-3.1 21.3-.4 3-1.8 6.8-4.8 6.5-3-.3-3.7-4.4-3.5-7.4.5-8.2 1.1-16.5 1.6-24.7.4-6.5 1.1-13.7 6-18.1M266.7 748.5c1.7-3 5.9-3.3 9.4-2.9 11.4 1.1 22.6 4.3 33 9.3 2.4 1.2 5.1 3.8 3.7 6-3.5.2-7 .3-10.5.5-6.7.2-13.6.5-20.1-1.2-6.5-1.7-12.7-5.6-15.5-11.7M637.7 337c-5.7.3-11-2.6-16-5.4-5.7-3.1-11.5-6.3-17.2-9.5-2.6-1.5-5.6-3.5-5.5-6.5 7.7-3.3 16.9-6.6 24.3-2.4 2.3 1.3 4.1 3.3 5.9 5.3 4.7 5.2 9.3 11.6 8.5 18.5M314.2 907.6c2.2 3.7.7 8.7-2.4 11.7-3 3.1-7.2 4.6-11.2 6.1-8.8 3.1-17.7 6.4-27 7.6-3.2-1.5-3.4-6.3-1.2-9.1 2.1-2.8 5.6-4.1 9-5.2 10.9-3.7 21.8-7.4 32.8-11.1M617.5 376.1c2.1 1.4 1.4 4.9-.8 6.2-2.1 1.3-4.8 1-7.2.4-17.3-3.8-32.5-16-40-32.1 16.6 7.4 32.6 16 48 25.5M574.7 333.5c1.4-2.2 4.7-2 7.2-1.4 16.8 3.7 34.4 11.8 41.4 27.5 1.3 2.9-2.2 6-5.4 5.7-3.1-.3-5.6-2.7-7.9-4.8-7.2-6.6-15.1-12.4-23.6-17.2-4.6-2.5-9.6-5.1-11.7-9.8M494.4 457.1c-2.9-2.7-6.1-5.8-6.4-9.8-.4-4 4-8.3 7.5-6.2 9.7 5.8 19 12.4 27.7 19.7 7.1 5.9 14.4 13.3 15.1 22.5.3 2.9-.8 6.5-3.6 6.8-1.1.1-2.2-.3-3.1-.8-4.7-2.2-8.6-5.8-12.4-9.3-8.3-7.7-16.5-15.3-24.8-22.9M346.9 820.8c1 6.6-4.5 12.2-9.7 16.5-25 20.4-53.9 36-84.7 45.7-.5.2-1.1.4-1.7.4-3.4.2-5-4.8-3.2-7.7 1.8-2.9 5.3-4.1 8.5-5.3 24.7-8.7 46.9-23.4 67.8-39.2 6.9-5.2 14.4-10.7 23-10.4" fill="#000" stroke="none"/></svg>